<svg xmlns="http://www.w3.org/2000/svg" viewBox="0 0 1480 640" width="1480" height="640" font-family="Segoe UI, Arial, sans-serif">
  <defs>
    <marker id="arrow" viewBox="0 0 10 10" refX="9" refY="5" markerWidth="8" markerHeight="8" orient="auto-start-reverse">
      <path d="M 0 0 L 10 5 L 0 10 z" fill="#6b7a88"/>
    </marker>
  </defs>
  <rect x="0" y="0" width="1480" height="640" fill="#ffffff"/>

  <text x="740" y="40" text-anchor="middle" font-size="19" font-weight="700" fill="#0b3d66">Control architecture — a learned policy composed with a classical stack</text>

  <!-- ===== left: training with gates ===== -->
  <rect x="30" y="70" width="640" height="480" rx="14" fill="none" stroke="#6b7a88" stroke-width="2" stroke-dasharray="8 6"/>
  <text x="350" y="102" text-anchor="middle" font-size="17" font-weight="700" fill="#0b3d66">Training — wrapped in verification gates</text>

  <!-- gate chips -->
  <rect x="55" y="140" width="240" height="70" rx="10" fill="#ffffff" stroke="#1a7f6e" stroke-width="2"/>
  <text x="175" y="169" text-anchor="middle" font-size="15" fill="#1a7f6e" font-weight="600">physics sanity checks</text>
  <text x="175" y="192" text-anchor="middle" font-size="15" fill="#6b7a88">FK &amp; force probes</text>

  <rect x="55" y="240" width="240" height="70" rx="10" fill="#ffffff" stroke="#1a7f6e" stroke-width="2"/>
  <text x="175" y="269" text-anchor="middle" font-size="15" fill="#1a7f6e" font-weight="600">reward-economics audit</text>
  <text x="175" y="292" text-anchor="middle" font-size="15" fill="#6b7a88">failure must never pay</text>

  <rect x="55" y="340" width="240" height="70" rx="10" fill="#ffffff" stroke="#1a7f6e" stroke-width="2"/>
  <text x="175" y="369" text-anchor="middle" font-size="15" fill="#1a7f6e" font-weight="600">automated test suite</text>
  <text x="175" y="392" text-anchor="middle" font-size="15" fill="#6b7a88">+ seeded evaluations</text>

  <line x1="295" y1="175" x2="346" y2="230" stroke="#6b7a88" stroke-width="2" marker-end="url(#arrow)"/>
  <line x1="295" y1="275" x2="346" y2="275" stroke="#6b7a88" stroke-width="2" marker-end="url(#arrow)"/>
  <line x1="295" y1="375" x2="346" y2="320" stroke="#6b7a88" stroke-width="2" marker-end="url(#arrow)"/>

  <!-- training box -->
  <rect x="350" y="190" width="280" height="170" rx="12" fill="#ffffff" stroke="#d97a1e" stroke-width="2.5"/>
  <text x="490" y="223" text-anchor="middle" font-size="16" font-weight="700" fill="#d97a1e">Curriculum RL training</text>
  <text x="490" y="252" text-anchor="middle" font-size="15" fill="#6b7a88">hand-written PPO,</text>
  <text x="490" y="276" text-anchor="middle" font-size="15" fill="#6b7a88">performance-gated stages,</text>
  <text x="490" y="300" text-anchor="middle" font-size="15" fill="#6b7a88">domain randomization,</text>
  <text x="490" y="324" text-anchor="middle" font-size="15" fill="#6b7a88">24 parallel environments</text>

  <line x1="490" y1="360" x2="490" y2="396" stroke="#6b7a88" stroke-width="2" marker-end="url(#arrow)"/>

  <rect x="380" y="400" width="220" height="60" rx="10" fill="#ffffff" stroke="#0b3d66" stroke-width="2"/>
  <text x="490" y="426" text-anchor="middle" font-size="15" font-weight="600" fill="#0b3d66">gated policy</text>
  <text x="490" y="448" text-anchor="middle" font-size="15" font-weight="600" fill="#0b3d66">checkpoint</text>

  <!-- checkpoint -> deployment elbow -->
  <path d="M 600 430 L 692 430 L 692 172 L 744 172" fill="none" stroke="#6b7a88" stroke-width="2" marker-end="url(#arrow)"/>
  <text x="662" y="315" text-anchor="middle" font-size="15" fill="#6b7a88" transform="rotate(-90 662 315)">only gated builds ship</text>

  <!-- ===== right: deployment ===== -->
  <rect x="720" y="70" width="730" height="330" rx="14" fill="none" stroke="#0b3d66" stroke-width="2.5"/>
  <text x="1085" y="102" text-anchor="middle" font-size="17" font-weight="700" fill="#0b3d66">Deployment — one controller interface</text>

  <!-- learned policy -->
  <rect x="750" y="125" width="330" height="90" rx="12" fill="#ffffff" stroke="#d97a1e" stroke-width="2.5"/>
  <text x="915" y="155" text-anchor="middle" font-size="16" font-weight="700" fill="#d97a1e">Learned policy</text>
  <text x="915" y="181" text-anchor="middle" font-size="15" fill="#6b7a88">PPO actor, deterministic</text>
  <text x="915" y="203" text-anchor="middle" font-size="15" fill="#6b7a88">at deployment</text>

  <!-- classical stack -->
  <rect x="750" y="245" width="330" height="120" rx="12" fill="#ffffff" stroke="#0b3d66" stroke-width="2.5"/>
  <text x="915" y="274" text-anchor="middle" font-size="16" font-weight="700" fill="#0b3d66">Classical stack</text>
  <text x="915" y="300" text-anchor="middle" font-size="15" fill="#6b7a88">LQR balance &#183; model-based</text>
  <text x="915" y="322" text-anchor="middle" font-size="15" fill="#6b7a88">flight control &#183; PID loops</text>
  <text x="915" y="344" text-anchor="middle" font-size="15" fill="#6b7a88">independent safety layer</text>

  <!-- composition -->
  <circle cx="1180" cy="245" r="28" fill="#ffffff" stroke="#1a7f6e" stroke-width="2.5"/>
  <text x="1180" y="254" text-anchor="middle" font-size="26" font-weight="700" fill="#1a7f6e">+</text>
  <path d="M 1080 170 C 1125 170 1145 200 1158 224" fill="none" stroke="#6b7a88" stroke-width="2" marker-end="url(#arrow)"/>
  <path d="M 1080 305 C 1125 305 1145 288 1158 268" fill="none" stroke="#6b7a88" stroke-width="2" marker-end="url(#arrow)"/>
  <text x="1224" y="228" font-size="15" fill="#6b7a88">residual composition —</text>
  <text x="1224" y="250" font-size="15" fill="#6b7a88">the policy corrects the</text>
  <text x="1224" y="272" font-size="15" fill="#6b7a88">stabilizing classical base</text>

  <!-- plant -->
  <line x1="1180" y1="273" x2="1180" y2="466" stroke="#6b7a88" stroke-width="2" marker-end="url(#arrow)"/>
  <text x="1194" y="390" font-size="15" fill="#6b7a88">actuator commands</text>

  <rect x="740" y="470" width="710" height="100" rx="12" fill="#ffffff" stroke="#6b7a88" stroke-width="2"/>
  <text x="1095" y="502" text-anchor="middle" font-size="16" font-weight="700" fill="#0b3d66">Plant</text>
  <text x="1095" y="528" text-anchor="middle" font-size="15" fill="#6b7a88">MuJoCo verification simulator today, robot hardware next</text>
  <text x="1095" y="550" text-anchor="middle" font-size="15" fill="#6b7a88">500 Hz physics &#183; 100 Hz control</text>

  <line x1="790" y1="470" x2="790" y2="404" stroke="#6b7a88" stroke-width="2" marker-end="url(#arrow)"/>
  <text x="806" y="447" font-size="15" fill="#6b7a88">onboard state feedback</text>

  <text x="740" y="614" text-anchor="middle" font-size="15" fill="#6b7a88">Learned, classical, and hybrid controllers are interchangeable behind the same interface and compared on identical seeded evaluations.</text>
</svg>
