<svg xmlns="http://www.w3.org/2000/svg" viewBox="0 0 1480 560" width="1480" height="560" font-family="Segoe UI, Arial, sans-serif">
  <rect x="0" y="0" width="1480" height="560" fill="#ffffff"/>

  <!-- legend -->
  <line x1="40" y1="36" x2="70" y2="36" stroke="#0b3d66" stroke-width="4"/>
  <text x="78" y="41" font-size="15" fill="#6b7a88">balance</text>
  <line x1="170" y1="36" x2="200" y2="36" stroke="#1a7f6e" stroke-width="4"/>
  <text x="208" y="41" font-size="15" fill="#6b7a88">drive</text>
  <line x1="280" y1="36" x2="310" y2="36" stroke="#d97a1e" stroke-width="4"/>
  <text x="318" y="41" font-size="15" fill="#6b7a88">fly / hover</text>

  <text x="1445" y="41" text-anchor="end" font-size="15" fill="#6b7a88" font-style="italic">conceptual illustration, not measured curves</text>

  <!-- ===== left panel ===== -->
  <text x="380" y="85" text-anchor="middle" font-size="17" font-weight="700" fill="#d97a1e">Sequential training only: earlier skills fade</text>

  <line x1="90" y1="120" x2="90" y2="440" stroke="#6b7a88" stroke-width="2"/>
  <line x1="90" y1="440" x2="670" y2="440" stroke="#6b7a88" stroke-width="2"/>
  <text x="60" y="280" text-anchor="middle" font-size="15" fill="#6b7a88" transform="rotate(-90 60 280)">skill proficiency</text>
  <text x="380" y="470" text-anchor="middle" font-size="15" fill="#6b7a88">training progress &#8594; new stages introduced</text>

  <line x1="283" y1="130" x2="283" y2="440" stroke="#6b7a88" stroke-width="1.5" stroke-dasharray="6 5"/>
  <text x="283" y="118" text-anchor="middle" font-size="15" fill="#6b7a88">stage added</text>
  <line x1="476" y1="130" x2="476" y2="440" stroke="#6b7a88" stroke-width="1.5" stroke-dasharray="6 5"/>
  <text x="476" y="118" text-anchor="middle" font-size="15" fill="#6b7a88">stage added</text>

  <path d="M 92 436 C 150 432 175 185 245 172 L 283 168 C 380 180 540 360 668 398" fill="none" stroke="#0b3d66" stroke-width="3.5"/>
  <path d="M 283 436 C 330 432 350 210 420 195 L 476 190 C 555 202 620 330 668 352" fill="none" stroke="#1a7f6e" stroke-width="3.5"/>
  <path d="M 476 436 C 520 432 560 235 668 200" fill="none" stroke="#d97a1e" stroke-width="3.5"/>

  <text x="380" y="505" text-anchor="middle" font-size="15" fill="#6b7a88">training only the newest skill overwrites older ones,</text>
  <text x="380" y="527" text-anchor="middle" font-size="15" fill="#6b7a88">the policy that learns to fly forgets how to balance</text>

  <!-- ===== right panel ===== -->
  <text x="1120" y="85" text-anchor="middle" font-size="17" font-weight="700" fill="#1a7f6e">With retention rehearsal: every skill stays alive</text>

  <line x1="830" y1="120" x2="830" y2="440" stroke="#6b7a88" stroke-width="2"/>
  <line x1="830" y1="440" x2="1410" y2="440" stroke="#6b7a88" stroke-width="2"/>
  <text x="800" y="280" text-anchor="middle" font-size="15" fill="#6b7a88" transform="rotate(-90 800 280)">skill proficiency</text>
  <text x="1120" y="470" text-anchor="middle" font-size="15" fill="#6b7a88">training progress &#8594; new stages introduced</text>

  <line x1="1023" y1="130" x2="1023" y2="440" stroke="#6b7a88" stroke-width="1.5" stroke-dasharray="6 5"/>
  <text x="1023" y="118" text-anchor="middle" font-size="15" fill="#6b7a88">stage added</text>
  <line x1="1216" y1="130" x2="1216" y2="440" stroke="#6b7a88" stroke-width="1.5" stroke-dasharray="6 5"/>
  <text x="1216" y="118" text-anchor="middle" font-size="15" fill="#6b7a88">stage added</text>

  <path d="M 832 436 C 890 432 915 185 985 172 L 1023 168 C 1045 182 1070 184 1130 176 L 1216 172 C 1235 184 1265 186 1408 176" fill="none" stroke="#0b3d66" stroke-width="3.5"/>
  <path d="M 1023 436 C 1070 432 1090 212 1160 196 L 1216 192 C 1238 202 1280 204 1408 194" fill="none" stroke="#1a7f6e" stroke-width="3.5"/>
  <path d="M 1216 436 C 1260 432 1300 235 1408 208" fill="none" stroke="#d97a1e" stroke-width="3.5"/>

  <text x="1120" y="505" text-anchor="middle" font-size="15" fill="#6b7a88">a share of every training batch keeps rehearsing</text>
  <text x="1120" y="527" text-anchor="middle" font-size="15" fill="#6b7a88">earlier stages, so one policy retains all of its skills</text>
</svg>
