<svg xmlns="http://www.w3.org/2000/svg" viewBox="0 0 1460 730" width="1460" height="730" font-family="Segoe UI, Arial, sans-serif">
  <defs>
    <marker id="arr" viewBox="0 0 10 10" refX="9" refY="5" markerWidth="8" markerHeight="8" orient="auto-start-reverse">
      <path d="M0,0 L10,5 L0,10 z" fill="#6b7a88"/>
    </marker>
    <marker id="arrB" viewBox="0 0 10 10" refX="9" refY="5" markerWidth="8" markerHeight="8" orient="auto-start-reverse">
      <path d="M0,0 L10,5 L0,10 z" fill="#0b3d66"/>
    </marker>
    <marker id="arrO" viewBox="0 0 10 10" refX="9" refY="5" markerWidth="8" markerHeight="8" orient="auto-start-reverse">
      <path d="M0,0 L10,5 L0,10 z" fill="#d97a1e"/>
    </marker>
    <marker id="arrT" viewBox="0 0 10 10" refX="9" refY="5" markerWidth="8" markerHeight="8" orient="auto-start-reverse">
      <path d="M0,0 L10,5 L0,10 z" fill="#1a7f6e"/>
    </marker>
  </defs>
  <rect x="0" y="0" width="1460" height="730" fill="#ffffff"/>

  <!-- closed control loop (top) -->
  <path d="M1110,85 V45 H150 V83" fill="none" stroke="#d97a1e" stroke-width="2.5" marker-end="url(#arrO)"/>
  <text x="630" y="37" font-size="15" fill="#d97a1e" text-anchor="middle" font-weight="600">control loop &#8212; the actor's velocity commands drive the simulated robot</text>

  <!-- Gazebo -->
  <rect x="25" y="85" width="250" height="190" rx="10" fill="#ffffff" stroke="#6b7a88" stroke-width="1.5"/>
  <rect x="25" y="85" width="250" height="44" rx="10" fill="#0b3d66"/>
  <rect x="25" y="111" width="250" height="18" fill="#0b3d66"/>
  <text x="150" y="114" font-size="18" fill="#ffffff" text-anchor="middle" font-weight="700">Gazebo simulation</text>
  <text x="41" y="159" font-size="15" fill="#0b3d66">Pioneer 3-DX + VLP-16</text>
  <text x="41" y="185" font-size="15" fill="#0b3d66">/velodyne_points (LiDAR)</text>
  <text x="41" y="211" font-size="15" fill="#0b3d66">/odom (pose, heading)</text>
  <text x="41" y="237" font-size="15" fill="#0b3d66">/front_laser/scan (2D)</text>
  <text x="41" y="263" font-size="15" fill="#0b3d66">physics + rendering</text>

  <!-- State vector -->
  <rect x="330" y="85" width="330" height="190" rx="10" fill="#ffffff" stroke="#6b7a88" stroke-width="1.5"/>
  <rect x="330" y="85" width="330" height="44" rx="10" fill="#0b3d66"/>
  <rect x="330" y="111" width="330" height="18" fill="#0b3d66"/>
  <text x="495" y="114" font-size="18" fill="#ffffff" text-anchor="middle" font-weight="700">State vector &#8212; 24 values</text>
  <text x="346" y="159" font-size="15" fill="#0b3d66">20 LiDAR sectors &#8212; minimum</text>
  <text x="346" y="185" font-size="15" fill="#0b3d66">distance per bin, 180&#176; front</text>
  <text x="346" y="211" font-size="15" fill="#0b3d66">distance to goal (1)</text>
  <text x="346" y="237" font-size="15" fill="#0b3d66">heading error &#952; (1)</text>
  <text x="346" y="263" font-size="15" fill="#0b3d66">previous action v, &#969; (2)</text>

  <!-- TD3 Actor -->
  <rect x="715" y="85" width="250" height="190" rx="10" fill="#ffffff" stroke="#6b7a88" stroke-width="1.5"/>
  <rect x="715" y="85" width="250" height="44" rx="10" fill="#d97a1e"/>
  <rect x="715" y="111" width="250" height="18" fill="#d97a1e"/>
  <text x="840" y="114" font-size="18" fill="#ffffff" text-anchor="middle" font-weight="700">TD3 Actor</text>
  <text x="731" y="163" font-size="15" fill="#0b3d66">state(24) &#8594; 800 &#8594; 600</text>
  <text x="731" y="189" font-size="15" fill="#0b3d66">&#8594; action(2), tanh</text>
  <text x="731" y="215" font-size="15" fill="#0b3d66">linear &#8712; [0,1] m/s (fwd)</text>
  <text x="731" y="241" font-size="15" fill="#0b3d66">angular &#969; (rad/s)</text>

  <!-- cmd_vel -->
  <rect x="1015" y="85" width="190" height="190" rx="10" fill="#ffffff" stroke="#6b7a88" stroke-width="1.5"/>
  <rect x="1015" y="85" width="190" height="44" rx="10" fill="#1a7f6e"/>
  <rect x="1015" y="111" width="190" height="18" fill="#1a7f6e"/>
  <text x="1110" y="114" font-size="18" fill="#ffffff" text-anchor="middle" font-weight="700">/cmd_vel (Twist)</text>
  <text x="1031" y="163" font-size="15" fill="#0b3d66">linear v</text>
  <text x="1031" y="189" font-size="15" fill="#0b3d66">angular &#969;</text>
  <text x="1031" y="215" font-size="15" fill="#0b3d66">published to</text>
  <text x="1031" y="241" font-size="15" fill="#0b3d66">the robot</text>

  <!-- main flow arrows -->
  <path d="M275,180 H328" fill="none" stroke="#0b3d66" stroke-width="2.5" marker-end="url(#arrB)"/>
  <path d="M660,180 H713" fill="none" stroke="#0b3d66" stroke-width="2.5" marker-end="url(#arrB)"/>
  <path d="M965,180 H1013" fill="none" stroke="#0b3d66" stroke-width="2.5" marker-end="url(#arrB)"/>

  <!-- store transitions -->
  <path d="M430,275 V358" fill="none" stroke="#0b3d66" stroke-width="2" marker-end="url(#arrB)"/>
  <text x="444" y="322" font-size="15" fill="#0b3d66">store (s, a, r, s&#8242;)</text>

  <!-- policy gradient up -->
  <path d="M675,360 V322 H840 V277" fill="none" stroke="#d97a1e" stroke-width="2" marker-end="url(#arrO)"/>
  <text x="700" y="313" font-size="15" fill="#d97a1e">delayed policy gradient</text>

  <!-- Gazebo -> SLAM down arrow -->
  <path d="M150,275 V573" fill="none" stroke="#1a7f6e" stroke-width="2" marker-end="url(#arrT)"/>
  <text x="165" y="428" font-size="15" fill="#1a7f6e">/front_laser/scan</text>

  <!-- Training band label -->
  <text x="1275" y="352" font-size="15" fill="#6b7a88" text-anchor="end" font-weight="600">Training &#8212; off-policy TD3 learner (training runs only)</text>

  <!-- Replay buffer -->
  <rect x="330" y="360" width="200" height="150" rx="10" fill="#ffffff" stroke="#6b7a88" stroke-width="1.5"/>
  <rect x="330" y="360" width="200" height="44" rx="10" fill="#6b7a88"/>
  <rect x="330" y="386" width="200" height="18" fill="#6b7a88"/>
  <text x="430" y="389" font-size="18" fill="#ffffff" text-anchor="middle" font-weight="700">Replay buffer</text>
  <text x="346" y="434" font-size="15" fill="#0b3d66">(s, a, r, s&#8242;)</text>
  <text x="346" y="460" font-size="15" fill="#0b3d66">1&#215;10&#8310; transitions</text>
  <text x="346" y="486" font-size="15" fill="#0b3d66">batch 40</text>

  <!-- Twin critics -->
  <rect x="560" y="360" width="230" height="150" rx="10" fill="#ffffff" stroke="#6b7a88" stroke-width="1.5"/>
  <rect x="560" y="360" width="230" height="44" rx="10" fill="#d97a1e"/>
  <rect x="560" y="386" width="230" height="18" fill="#d97a1e"/>
  <text x="675" y="389" font-size="18" fill="#ffffff" text-anchor="middle" font-weight="700">Twin critics</text>
  <text x="576" y="434" font-size="15" fill="#0b3d66">min(Q1, Q2) target</text>
  <text x="576" y="460" font-size="15" fill="#0b3d66">Q: 800 &#8594; 600 &#8594; 1</text>
  <text x="576" y="486" font-size="15" fill="#0b3d66">fights overestimation</text>

  <!-- TD3 updates -->
  <rect x="820" y="360" width="245" height="150" rx="10" fill="#ffffff" stroke="#6b7a88" stroke-width="1.5"/>
  <rect x="820" y="360" width="245" height="44" rx="10" fill="#0b3d66"/>
  <rect x="820" y="386" width="245" height="18" fill="#0b3d66"/>
  <text x="942" y="389" font-size="18" fill="#ffffff" text-anchor="middle" font-weight="700">TD3 updates</text>
  <text x="836" y="434" font-size="15" fill="#0b3d66">delayed actor / 2 steps</text>
  <text x="836" y="460" font-size="15" fill="#0b3d66">target-policy smoothing</text>
  <text x="836" y="486" font-size="15" fill="#0b3d66">soft update &#964; = 0.005</text>

  <!-- Logging -->
  <rect x="1095" y="360" width="180" height="150" rx="10" fill="#ffffff" stroke="#6b7a88" stroke-width="1.5"/>
  <rect x="1095" y="360" width="180" height="44" rx="10" fill="#6b7a88"/>
  <rect x="1095" y="386" width="180" height="18" fill="#6b7a88"/>
  <text x="1185" y="389" font-size="18" fill="#ffffff" text-anchor="middle" font-weight="700">TensorBoard</text>
  <text x="1111" y="434" font-size="15" fill="#0b3d66">critic loss (MSE)</text>
  <text x="1111" y="460" font-size="15" fill="#0b3d66">Q-value curves</text>
  <text x="1111" y="486" font-size="15" fill="#0b3d66">eval every 5k steps</text>

  <!-- training flow arrows -->
  <path d="M530,435 H558" fill="none" stroke="#0b3d66" stroke-width="2.5" marker-end="url(#arrB)"/>
  <path d="M790,435 H818" fill="none" stroke="#0b3d66" stroke-width="2.5" marker-end="url(#arrB)"/>
  <path d="M1065,435 H1093" fill="none" stroke="#0b3d66" stroke-width="2.5" marker-end="url(#arrB)"/>

  <!-- SLAM band label -->
  <text x="90" y="558" font-size="15" fill="#1a7f6e" text-anchor="start" font-weight="600">Parallel SLAM path &#8212; runs alongside the policy, independent of it</text>

  <!-- slam_toolbox -->
  <rect x="90" y="573" width="250" height="128" rx="10" fill="#ffffff" stroke="#6b7a88" stroke-width="1.5"/>
  <rect x="90" y="573" width="250" height="44" rx="10" fill="#1a7f6e"/>
  <rect x="90" y="599" width="250" height="18" fill="#1a7f6e"/>
  <text x="215" y="602" font-size="18" fill="#ffffff" text-anchor="middle" font-weight="700">slam_toolbox</text>
  <text x="106" y="647" font-size="15" fill="#0b3d66">online async SLAM</text>
  <text x="106" y="673" font-size="15" fill="#0b3d66">in: /front_laser/scan</text>
  <text x="106" y="699" font-size="15" fill="#0b3d66">use_sim_time = true</text>

  <!-- occupancy grid -->
  <rect x="430" y="573" width="290" height="128" rx="10" fill="#ffffff" stroke="#6b7a88" stroke-width="1.5"/>
  <rect x="430" y="573" width="290" height="44" rx="10" fill="#1a7f6e"/>
  <rect x="430" y="599" width="290" height="18" fill="#1a7f6e"/>
  <text x="575" y="602" font-size="18" fill="#ffffff" text-anchor="middle" font-weight="700">/map &#8212; occupancy grid</text>
  <text x="446" y="647" font-size="15" fill="#0b3d66">built live while exploring</text>
  <text x="446" y="673" font-size="15" fill="#0b3d66">walls, cross &amp; triangle</text>
  <text x="446" y="699" font-size="15" fill="#0b3d66">obstacles, boxes captured</text>

  <!-- RViz2 -->
  <rect x="810" y="573" width="220" height="128" rx="10" fill="#ffffff" stroke="#6b7a88" stroke-width="1.5"/>
  <rect x="810" y="573" width="220" height="44" rx="10" fill="#6b7a88"/>
  <rect x="810" y="599" width="220" height="18" fill="#6b7a88"/>
  <text x="920" y="602" font-size="18" fill="#ffffff" text-anchor="middle" font-weight="700">RViz2</text>
  <text x="826" y="655" font-size="15" fill="#0b3d66">live map view</text>
  <text x="826" y="681" font-size="15" fill="#0b3d66">robot + laser scan</text>

  <!-- exploration note -->
  <rect x="1120" y="573" width="315" height="128" rx="10" fill="#ffffff" stroke="#6b7a88" stroke-width="1.5"/>
  <rect x="1120" y="573" width="315" height="44" rx="10" fill="#1a7f6e"/>
  <rect x="1120" y="599" width="315" height="18" fill="#1a7f6e"/>
  <text x="1277" y="602" font-size="18" fill="#ffffff" text-anchor="middle" font-weight="700">Autonomous exploration</text>
  <text x="1136" y="647" font-size="15" fill="#0b3d66">goals re-sampled in free</text>
  <text x="1136" y="673" font-size="15" fill="#0b3d66">space &#8594; robot keeps moving</text>
  <text x="1136" y="699" font-size="15" fill="#0b3d66">toward unmapped regions</text>

  <!-- SLAM flow arrows -->
  <path d="M340,637 H428" fill="none" stroke="#1a7f6e" stroke-width="2.5" marker-end="url(#arrT)"/>
  <path d="M720,637 H808" fill="none" stroke="#1a7f6e" stroke-width="2.5" marker-end="url(#arrT)"/>
</svg>
