<svg xmlns="http://www.w3.org/2000/svg" viewBox="0 0 1460 380" width="1460" height="380" font-family="Segoe UI, Arial, sans-serif">
  <defs>
    <marker id="arr" viewBox="0 0 10 10" refX="9" refY="5" markerWidth="8" markerHeight="8" orient="auto-start-reverse">
      <path d="M0,0 L10,5 L0,10 z" fill="#6b7a88"/>
    </marker>
    <marker id="arrB" viewBox="0 0 10 10" refX="9" refY="5" markerWidth="8" markerHeight="8" orient="auto-start-reverse">
      <path d="M0,0 L10,5 L0,10 z" fill="#0b3d66"/>
    </marker>
    <marker id="arrT" viewBox="0 0 10 10" refX="9" refY="5" markerWidth="8" markerHeight="8" orient="auto-start-reverse">
      <path d="M0,0 L10,5 L0,10 z" fill="#1a7f6e"/>
    </marker>
  </defs>
  <rect x="0" y="0" width="1460" height="380" fill="#ffffff"/>

  <!-- top note: shipped weights come from upstream -->
  <path d="M149,95 V34 H1292 V68" fill="none" stroke="#6b7a88" stroke-width="2" stroke-dasharray="7,6" marker-end="url(#arr)"/>
  <text x="690" y="26" font-size="14" fill="#6b7a88" text-anchor="middle">shipped pre-trained weights come from the upstream ROS&#160;1 project, box randomization was not fixed in the ROS&#160;2 port</text>

  <!-- A: upstream ROS 1 project -->
  <rect x="25" y="95" width="248" height="185" rx="10" fill="#ffffff" stroke="#6b7a88" stroke-width="1.5"/>
  <rect x="25" y="95" width="248" height="44" rx="10" fill="#6b7a88"/>
  <rect x="25" y="121" width="248" height="18" fill="#6b7a88"/>
  <text x="149" y="124" font-size="18" fill="#ffffff" text-anchor="middle" font-weight="700">Upstream ROS 1 project</text>
  <text x="41" y="169" font-size="15" fill="#0b3d66">reiniscimurs /</text>
  <text x="41" y="195" font-size="15" fill="#0b3d66">DRL-robot-navigation</text>
  <text x="41" y="221" font-size="15" fill="#0b3d66">ROS 1 &#183; TD3 + pre-trained</text>
  <text x="41" y="247" font-size="15" fill="#0b3d66">model (Cimurs et al.)</text>

  <!-- B: ROS 2 Foxy port -->
  <rect x="305" y="95" width="248" height="185" rx="10" fill="#ffffff" stroke="#6b7a88" stroke-width="1.5"/>
  <rect x="305" y="95" width="248" height="44" rx="10" fill="#0b3d66"/>
  <rect x="305" y="121" width="248" height="18" fill="#0b3d66"/>
  <text x="429" y="124" font-size="18" fill="#ffffff" text-anchor="middle" font-weight="700">ROS 2 Foxy port</text>
  <text x="321" y="169" font-size="15" fill="#0b3d66">robotmania conversion</text>
  <text x="321" y="195" font-size="15" fill="#0b3d66">Ubuntu 20.04 &#183; ROS 2 Foxy</text>
  <text x="321" y="221" font-size="15" fill="#0b3d66">colcon td3 package</text>
  <text x="321" y="247" font-size="15" fill="#0b3d66">live mapping added</text>

  <!-- C: Gazebo simulation -->
  <rect x="585" y="95" width="270" height="185" rx="10" fill="#ffffff" stroke="#6b7a88" stroke-width="1.5"/>
  <rect x="585" y="95" width="270" height="44" rx="10" fill="#0b3d66"/>
  <rect x="585" y="121" width="270" height="18" fill="#0b3d66"/>
  <text x="720" y="124" font-size="18" fill="#ffffff" text-anchor="middle" font-weight="700">Gazebo 11 simulation</text>
  <text x="601" y="169" font-size="15" fill="#0b3d66">Pioneer 3-DX base</text>
  <text x="601" y="195" font-size="15" fill="#0b3d66">Velodyne VLP-16 3D LiDAR</text>
  <text x="601" y="221" font-size="15" fill="#0b3d66">td3.world: walls + obstacles</text>
  <text x="601" y="247" font-size="15" fill="#0b3d66">randomized boxes &amp; goals</text>

  <!-- D: TD3 training -->
  <rect x="887" y="95" width="215" height="185" rx="10" fill="#ffffff" stroke="#6b7a88" stroke-width="1.5"/>
  <rect x="887" y="95" width="215" height="44" rx="10" fill="#d97a1e"/>
  <rect x="887" y="121" width="215" height="18" fill="#d97a1e"/>
  <text x="994" y="124" font-size="18" fill="#ffffff" text-anchor="middle" font-weight="700">TD3 training</text>
  <text x="903" y="169" font-size="15" fill="#0b3d66">replay + twin critics</text>
  <text x="903" y="195" font-size="15" fill="#0b3d66">delayed policy updates</text>
  <text x="903" y="221" font-size="15" fill="#0b3d66">TensorBoard logging</text>
  <text x="903" y="247" font-size="15" fill="#0b3d66">retrain optional</text>

  <!-- E: pre-trained policy -->
  <rect x="1150" y="70" width="285" height="118" rx="10" fill="#ffffff" stroke="#6b7a88" stroke-width="1.5"/>
  <rect x="1150" y="70" width="285" height="44" rx="10" fill="#1a7f6e"/>
  <rect x="1150" y="96" width="285" height="18" fill="#1a7f6e"/>
  <text x="1292" y="99" font-size="18" fill="#ffffff" text-anchor="middle" font-weight="700">Pre-trained policy</text>
  <text x="1166" y="144" font-size="15" fill="#0b3d66">loads actor .pth &#8594;</text>
  <text x="1166" y="170" font-size="15" fill="#0b3d66">/cmd_vel drives robot</text>

  <!-- F: slam_toolbox -->
  <rect x="1150" y="212" width="285" height="118" rx="10" fill="#ffffff" stroke="#6b7a88" stroke-width="1.5"/>
  <rect x="1150" y="212" width="285" height="44" rx="10" fill="#1a7f6e"/>
  <rect x="1150" y="238" width="285" height="18" fill="#1a7f6e"/>
  <text x="1292" y="241" font-size="18" fill="#ffffff" text-anchor="middle" font-weight="700">slam_toolbox: live map</text>
  <text x="1166" y="286" font-size="15" fill="#0b3d66">/front_laser/scan &#8594;</text>
  <text x="1166" y="312" font-size="15" fill="#0b3d66">/map occupancy grid</text>

  <!-- main flow arrows -->
  <path d="M273,187 H303" fill="none" stroke="#0b3d66" stroke-width="2.5" marker-end="url(#arrB)"/>
  <path d="M553,187 H583" fill="none" stroke="#0b3d66" stroke-width="2.5" marker-end="url(#arrB)"/>
  <path d="M855,187 H885" fill="none" stroke="#0b3d66" stroke-width="2.5" marker-end="url(#arrB)"/>

  <!-- branch to outputs -->
  <path d="M1102,187 C1128,187 1128,129 1150,129" fill="none" stroke="#1a7f6e" stroke-width="2.5" marker-end="url(#arrT)"/>
  <path d="M1102,187 C1128,187 1128,271 1150,271" fill="none" stroke="#1a7f6e" stroke-width="2.5" marker-end="url(#arrT)"/>

  <!-- deploy label -->
  <text x="1292" y="356" font-size="14" fill="#6b7a88" text-anchor="middle">runtime: explore + map together (testmap_simulation)</text>
</svg>
